<?xml version="1.0" encoding="UTF-8"?>
<svg version="1.1" xmlns="http://www.w3.org/2000/svg" width="549" height="392">
<path d="M0 0 C181.17 0 362.34 0 549 0 C549 13.2 549 26.4 549 40 C367.83 40 186.66 40 0 40 C0 26.8 0 13.6 0 0 Z " fill="#FF6200" transform="translate(0,352)"/>
<path d="M0 0 C181.17 0 362.34 0 549 0 C549 13.2 549 26.4 549 40 C367.83 40 186.66 40 0 40 C0 26.8 0 13.6 0 0 Z " fill="#FF6100" transform="translate(0,176)"/>
<path d="M0 0 C181.17 0 362.34 0 549 0 C549 13.2 549 26.4 549 40 C367.83 40 186.66 40 0 40 C0 26.8 0 13.6 0 0 Z " fill="#FF6200" transform="translate(0,0)"/>
</svg>
