<?xml version="1.0" encoding="UTF-8"?>
<svg version="1.1" xmlns="http://www.w3.org/2000/svg" width="323" height="549">
<path d="M0 0 C2.85871698 1.1188114 4.42272925 2.7347145 6.5963468 4.90388149 C7.93084156 6.22479129 7.93084156 6.22479129 9.29229581 7.57238615 C10.27550431 8.56069933 11.25856873 9.54915586 12.24150461 10.53774017 C13.28846138 11.57981022 14.33606783 12.62122788 15.38426876 13.66204643 C18.26838642 16.52971271 21.14301988 19.40672658 24.01619655 22.28534919 C27.11452451 25.38634108 30.2214229 28.4787256 33.32719797 31.57225555 C39.41360653 37.63757805 45.49170165 43.71116631 51.56668483 49.7879303 C56.50560408 54.72815605 61.4470678 59.66582242 66.390356 64.6016764 C67.81313239 66.02235362 69.235908 67.44303162 70.65868282 68.8637104 C71.36681433 69.57079838 72.07494584 70.27788636 72.80453587 71.00640125 C86.2072995 84.39024829 99.60005705 97.78407405 112.98995549 111.18079019 C125.23603328 123.43243938 137.49524525 135.67084967 149.76066159 147.90313583 C162.35299921 160.46172395 174.93601398 173.0295848 187.50917816 185.60736942 C194.56875273 192.66918806 201.63201747 199.72721986 208.70515627 206.77545494 C214.72935383 212.77862273 220.74474118 218.79045111 226.74898278 224.81358104 C229.81165853 227.88540572 232.87818053 230.95310528 235.9557609 234.01000351 C238.77630625 236.81180359 241.58493608 239.62501265 244.38474334 242.44753177 C245.39650272 243.463468 246.41245012 244.47525532 247.43308359 245.48227607 C255.77061974 253.71618871 262.12841247 261.9082602 262.40130991 274.02945465 C262.15522387 288.84383433 252.80950803 297.484717 242.88980478 307.37761444 C241.84761126 308.42426694 240.8058472 309.47134721 239.76447302 310.51881492 C236.91703559 313.38036113 234.06343903 316.23569358 231.20871896 319.08997208 C228.12542055 322.17492479 225.04784459 325.26557785 221.96945566 328.35542816 C215.24790925 335.09976654 208.51896018 341.83668645 201.78854126 348.57216901 C197.58713467 352.77683623 193.38736219 356.98313298 189.18793482 361.18977684 C177.56045645 372.83680544 165.93141314 384.48226488 154.29561037 396.12097782 C153.55198931 396.86478645 152.80836824 397.60859508 152.04221321 398.37494337 C150.53477607 399.88274676 149.02733766 401.39054887 147.51989798 402.89834971 C146.77161841 403.64681209 146.02333884 404.39527448 145.25238413 405.16641754 C144.50319145 405.91579076 143.75399878 406.66516398 142.9821033 407.43724548 C130.81854662 419.60435068 118.66679554 431.78317337 106.52014522 443.96715433 C94.04946196 456.47585762 81.56950338 468.97524177 69.07994658 481.46510112 C62.06730588 488.47832744 55.05870551 495.49548866 48.06021112 502.52283424 C42.10735816 508.50011555 36.14607589 514.46882357 30.17344885 520.42634899 C27.12457283 523.46802373 24.07995403 526.51367086 21.04598612 529.57022232 C18.27236448 532.36429244 15.4876091 535.14672244 12.69326742 537.92006617 C11.68092668 538.92888501 10.67285396 539.94200739 9.66938584 540.95965219 C8.31185451 542.33512865 6.93754622 543.69398802 5.56231874 545.05177158 C4.80157387 545.81333091 4.04082901 546.57489023 3.25703126 547.35952711 C1.15130991 548.84195465 1.15130991 548.84195465 -0.99465936 548.68601215 C-3.57203946 547.51264594 -5.16570008 545.88352589 -7.15826041 543.87296051 C-7.99882986 543.03216446 -8.83939932 542.19136841 -9.70544058 541.32509369 C-10.60349417 540.41155624 -11.50154776 539.4980188 -12.42681509 538.5567984 C-13.35338919 537.62597946 -14.27996329 536.69516052 -15.23461539 535.73613495 C-17.69408996 533.26522344 -20.14442111 530.78543496 -22.59295279 528.30368561 C-25.0946106 525.77130212 -27.60481631 523.24742334 -30.11431509 520.72281402 C-35.03417022 515.77081512 -39.94441763 510.80938516 -44.84869009 505.84195465 C-43.4055417 502.53897989 -41.61610428 500.36045697 -39.07306868 497.82023758 C-38.28183918 497.02502598 -37.49060968 496.22981439 -36.67540354 495.41050547 C-35.8018749 494.54280252 -34.92834627 493.67509958 -34.02834707 492.7811026 C-32.64145955 491.3916518 -32.64145955 491.3916518 -31.2265541 489.97413129 C-28.65879928 487.4018996 -26.08484175 484.8359538 -23.50984317 482.27097648 C-20.73459523 479.50435583 -17.96511954 476.73196771 -15.19494253 473.9602713 C-10.39421043 469.15848989 -5.58982655 464.36038741 -0.78295141 459.56475586 C6.16699859 452.63105167 13.11142723 445.69183927 20.05451553 438.7512649 C31.31903781 427.49112116 42.5880203 416.23545211 53.859806 404.98257965 C64.8100637 394.05067662 75.75822136 383.11667749 86.703556 372.17984527 C87.37809155 371.50583517 88.05262711 370.83182506 88.74760313 370.1373904 C92.13149635 366.75610724 95.51534826 363.37478275 98.89917964 359.99343771 C126.97682233 331.93653248 155.06170314 303.88688155 183.15130991 275.84195465 C181.73423992 272.62422713 180.03374273 270.47612692 177.55141538 267.99875778 C176.79933673 267.24331373 176.04725809 266.48786968 175.27238917 265.70953339 C174.44254486 264.88619689 173.61270055 264.06286038 172.75770944 263.21457428 C171.87889224 262.33475379 171.00007505 261.45493331 170.09462702 260.5484516 C167.65350787 258.10654375 165.20797697 255.6692107 162.76050621 253.23367876 C160.12212545 250.60598299 157.48952995 247.97250267 154.8562507 245.33969635 C150.29119155 240.77700071 145.7225374 236.21793054 141.15148729 231.66123718 C134.53437371 225.06480712 127.92326884 218.46238138 121.31371065 211.8583819 C110.57944252 201.13337377 99.84108244 190.41247283 89.09979624 179.69449371 C88.45679062 179.05288141 87.81378501 178.41126911 87.15129437 177.75021401 C86.50750725 177.10782242 85.86372013 176.46543083 85.20042431 175.80357283 C76.08414948 166.70704317 66.96882748 157.60956017 57.85467905 148.51089996 C57.21397127 147.87128304 56.5732635 147.23166611 55.91314033 146.57266685 C45.22028798 135.89785429 34.52947666 125.22099913 23.83970702 114.54309958 C17.24855479 107.95952824 10.65533429 101.37804052 4.05940297 94.79925719 C-0.46394357 90.28750392 -4.98557571 85.77403749 -9.50588175 81.25923797 C-12.11197683 78.6564651 -14.71890474 76.05454056 -17.32807928 73.45485443 C-20.16150354 70.63171515 -22.9909969 67.80466767 -25.82017142 64.97726959 C-26.63886212 64.16285597 -27.45755282 63.34844235 -28.30105233 62.50934952 C-32.48199154 58.32427018 -36.50192362 54.06491999 -40.3418802 49.56375998 C-41.7829465 47.91707871 -43.28348114 46.3701772 -44.84869009 44.84195465 C-43.38067181 41.46563134 -41.49768761 39.22306175 -38.921444 36.60831207 C-38.113655 35.78453567 -37.305866 34.96075927 -36.47359854 34.11201996 C-35.59964438 33.23270309 -34.72569021 32.35338623 -33.82525259 31.4474234 C-32.47867071 30.08729881 -32.47867071 30.08729881 -31.10488516 28.69969696 C-29.20609252 26.78640162 -27.30503957 24.8756664 -25.40044791 22.96817535 C-22.9583013 20.52062509 -20.53274966 18.05729821 -18.11079985 15.58978313 C-15.79750245 13.23965954 -13.46650861 10.90721435 -11.13775259 8.5724234 C-10.26784689 7.68298538 -9.39794119 6.79354736 -8.50167471 5.87715667 C-7.68758139 5.06914108 -6.87348807 4.26112549 -6.03472525 3.42862457 C-5.32127951 2.71010818 -4.60783377 1.99159179 -3.87276846 1.25130218 C-1.84869009 -0.15804535 -1.84869009 -0.15804535 0 0 Z " fill="#FF6100" transform="translate(52.84869009256363,0.15804535150527954)"/>
</svg>
