<?xml version="1.0" encoding="UTF-8"?>
<svg version="1.1" xmlns="http://www.w3.org/2000/svg" width="550" height="550">
<path d="M0 0 C1.00064484 -0.00671722 2.00128967 -0.01343445 3.03225708 -0.02035522 C6.33828711 -0.03934285 9.64411415 -0.04326006 12.95019531 -0.04541016 C15.25319502 -0.05183834 17.5561939 -0.05856671 19.85919189 -0.06558228 C24.6877227 -0.07755753 29.51618195 -0.08126292 34.34472656 -0.08007812 C40.5194912 -0.07987511 46.6937947 -0.10715883 52.86845016 -0.14162254 C57.62638437 -0.16390769 62.38420798 -0.16791513 67.14218903 -0.16685867 C69.41787554 -0.1692129 71.69356517 -0.17802628 73.96920013 -0.19352341 C77.15947828 -0.21321213 80.34876697 -0.20733306 83.5390625 -0.1953125 C84.4713266 -0.20655151 85.4035907 -0.21779053 86.36410522 -0.22937012 C93.27791731 -0.16347758 99.39877256 1.2449177 104.80521774 5.78154945 C111.31878246 12.69607343 112.48050963 20.997105 112.41650391 30.16552734 C112.42438934 31.57958862 112.42438934 31.57958862 112.43243408 33.0222168 C112.44554537 36.11182649 112.43692747 39.20091319 112.42675781 42.29052734 C112.42878109 44.45328876 112.43169465 46.6160495 112.43545532 48.77880859 C112.43986667 53.3010104 112.43348588 57.82303385 112.41943359 62.34521484 C112.4023426 68.12522582 112.41219015 73.90481879 112.43015099 79.68481445 C112.44102091 84.1476554 112.43752775 88.61039819 112.42976761 93.07324219 C112.42777448 95.20377655 112.43019352 97.33431999 112.43720627 99.46484375 C112.44487361 102.44864319 112.43314263 105.43177713 112.41650391 108.41552734 C112.4225766 109.28540283 112.42864929 110.15527832 112.43490601 111.05151367 C112.35033017 119.28920037 110.569432 126.67845743 104.80582428 132.79962921 C98.56152084 138.03709732 91.56385637 138.87761985 83.69433594 138.80810547 C82.70286057 138.81511475 81.71138519 138.82212402 80.68986511 138.8293457 C77.43780869 138.8468391 74.18663439 138.83533336 70.93457031 138.82177734 C68.65970697 138.82447473 66.38484476 138.82835921 64.10998535 138.83337402 C59.35234554 138.83925738 54.59500701 138.83074335 49.83740234 138.81201172 C43.75462102 138.78922329 37.67254579 138.80235256 31.58979034 138.82630157 C26.89531178 138.8407908 22.20099921 138.83613916 17.5065155 138.82579041 C15.26433731 138.82313177 13.02214381 138.82636232 10.77998352 138.83570862 C7.64035409 138.84592546 4.50185076 138.83030062 1.36230469 138.80810547 C0.44567551 138.81620239 -0.47095367 138.82429932 -1.4153595 138.8326416 C-8.30229393 138.74294451 -14.57208584 137.33145812 -19.82975006 132.62848663 C-26.23686099 125.92136513 -27.42075805 118.26915 -27.37573242 109.36132812 C-27.38259567 108.40086578 -27.38945892 107.44040344 -27.39653015 106.45083618 C-27.41473707 103.29568432 -27.41096896 100.14103266 -27.40527344 96.98583984 C-27.40983846 94.77920369 -27.41514498 92.57256896 -27.42115784 90.36593628 C-27.43007721 85.74780491 -27.42767945 81.12984658 -27.41772461 76.51171875 C-27.40624211 70.61174877 -27.4264419 64.71237795 -27.45564175 58.81248665 C-27.47404367 54.25695032 -27.4737032 49.70155647 -27.46800423 45.14599228 C-27.46785147 42.97161901 -27.47385766 40.7972358 -27.4862957 38.6228981 C-27.50127755 35.57439538 -27.49047519 32.52698562 -27.47338867 29.47851562 C-27.48305664 28.59196289 -27.49272461 27.70541016 -27.50268555 26.79199219 C-27.41737018 19.47339236 -25.66671971 12.63387719 -21.00683594 6.85302734 C-20.35585937 6.33740234 -19.70488281 5.82177734 -19.03417969 5.29052734 C-18.38578125 4.75427734 -17.73738281 4.21802734 -17.06933594 3.66552734 C-11.47921546 0.0012398 -6.49603189 -0.00626124 0 0 Z M20.02832031 47.29052734 C20.02832031 61.81052734 20.02832031 76.33052734 20.02832031 91.29052734 C34.87832031 91.29052734 49.72832031 91.29052734 65.02832031 91.29052734 C65.02832031 76.77052734 65.02832031 62.25052734 65.02832031 47.29052734 C50.17832031 47.29052734 35.32832031 47.29052734 20.02832031 47.29052734 Z " fill="#FF6100" transform="translate(232.9716796875,-0.29052734375)"/>
<path d="M0 0 C0.98347412 -0.00554901 1.96694824 -0.01109802 2.98022461 -0.01681519 C6.19940427 -0.02853203 9.41715137 -0.00441988 12.63623047 0.02148438 C14.88963761 0.02319743 17.14304675 0.02312782 19.39645386 0.0213623 C24.1053184 0.02301094 28.81370423 0.04162829 33.52246094 0.07324219 C39.54582778 0.11296341 45.5685699 0.11727905 51.59204292 0.10977936 C56.24015993 0.10670452 60.88813755 0.11884782 65.53622055 0.13591003 C67.75688681 0.14291959 69.97756885 0.14606706 72.198246 0.1452179 C75.30432758 0.1470234 78.40967164 0.1684688 81.515625 0.1953125 C82.87957901 0.1909166 82.87957901 0.1909166 84.27108765 0.18643188 C92.78405131 0.299466 99.49775283 2.34523594 105.62841797 8.61523438 C108.81873589 13.73197429 110.74335951 18.69272757 110.76885986 24.75614929 C110.77457001 25.57322861 110.78028015 26.39030792 110.78616333 27.23214722 C110.78784012 28.56392502 110.78784012 28.56392502 110.78955078 29.92260742 C110.79451569 30.86458481 110.79948059 31.80656219 110.80459595 32.77708435 C110.81920109 35.89371472 110.8260176 39.01029415 110.83154297 42.12695312 C110.8372967 44.29685975 110.84305441 46.46676637 110.84881592 48.63667297 C110.85932186 53.18869259 110.86516689 57.74069457 110.86865234 62.29272461 C110.87412976 68.11207273 110.89814357 73.93118602 110.9266243 79.75046062 C110.94529433 84.23473276 110.95045865 88.71894889 110.95198822 93.20325661 C110.95500648 95.34775892 110.96300694 97.49226045 110.9761734 99.63672447 C110.9933216 102.64495809 110.99133195 105.65262535 110.98486328 108.66088867 C110.99407806 109.53861938 111.00329285 110.4163501 111.01278687 111.32067871 C110.96232239 118.8523421 109.569403 126.24133973 104.37841797 131.99023438 C103.83701172 132.61671875 103.29560547 133.24320313 102.73779297 133.88867188 C96.72946306 138.80660117 90.77512446 139.05482521 83.32202148 139.01928711 C82.30972473 139.02615036 81.29742798 139.03301361 80.25445557 139.04008484 C76.92193411 139.05832439 73.58988469 139.0545193 70.25732422 139.04882812 C67.93236641 139.05339122 65.60740995 139.05869718 63.28245544 139.06471252 C58.41456618 139.07363803 53.54684102 139.07122669 48.67895508 139.0612793 C42.45031753 139.0497896 36.2222469 139.07000459 29.99368382 139.09919643 C25.19374512 139.1175691 20.39394202 139.11726381 15.59397697 139.11155891 C13.29793439 139.11140584 11.00188253 139.11743892 8.70587349 139.12985039 C5.49162662 139.14477844 2.27842387 139.13406911 -0.93579102 139.11694336 C-1.87785904 139.12661133 -2.81992706 139.1362793 -3.7905426 139.14624023 C-10.74352743 139.06892326 -15.95782922 137.43208345 -21.35986328 132.97460938 C-22.01535156 132.17796875 -22.01535156 132.17796875 -22.68408203 131.36523438 C-23.13396484 130.84445312 -23.58384766 130.32367188 -24.04736328 129.78710938 C-28.05374045 123.21617809 -28.811461 117.27721041 -28.75976562 109.76196289 C-28.76502258 108.80964783 -28.77027954 107.85733276 -28.7756958 106.87615967 C-28.78882872 103.74864988 -28.78018068 100.62165501 -28.77001953 97.49414062 C-28.77204236 95.30752973 -28.77495553 93.1209195 -28.77871704 90.93431091 C-28.78313147 86.35905513 -28.77673825 81.78397548 -28.76269531 77.20874023 C-28.74561429 71.36032091 -28.7554436 65.512315 -28.7734127 59.66391087 C-28.78428295 55.15045591 -28.78078914 50.63709803 -28.77302933 46.12364006 C-28.77103576 43.96798592 -28.77345681 41.81232281 -28.78046799 39.65667915 C-28.78813467 36.63685078 -28.77640476 33.61768012 -28.75976562 30.59790039 C-28.76887466 29.27670448 -28.76887466 29.27670448 -28.77816772 27.92881775 C-28.70160774 20.38264686 -27.31835303 12.67756737 -21.9948864 6.9516983 C-15.34564699 1.47738997 -8.40513121 -0.12314697 0 0 Z M18.62841797 47.61523438 C18.62841797 62.46523438 18.62841797 77.31523437 18.62841797 92.61523438 C33.47841797 92.61523438 48.32841797 92.61523438 63.62841797 92.61523438 C63.62841797 77.76523437 63.62841797 62.91523438 63.62841797 47.61523438 C48.77841797 47.61523438 33.92841797 47.61523438 18.62841797 47.61523438 Z " fill="#FF6100" transform="translate(234.37158203125,205.384765625)"/>
<path d="M0 0 C1.00225113 -0.00671722 2.00450226 -0.01343445 3.03712463 -0.02035522 C6.34796111 -0.03934119 9.65859491 -0.04325983 12.96948242 -0.04541016 C15.27487776 -0.05183793 17.58027227 -0.05856628 19.88566589 -0.06558228 C24.71839285 -0.07755674 29.55104832 -0.08126294 34.38378906 -0.08007812 C40.56761978 -0.07987499 46.75099063 -0.10717091 52.93471241 -0.14162254 C57.69689528 -0.16389239 62.45896752 -0.16791562 67.22119713 -0.16685867 C69.50050121 -0.16921473 71.77980835 -0.17803848 74.05906105 -0.19352341 C77.25193831 -0.21318324 80.44382453 -0.2073446 83.63671875 -0.1953125 C84.57257813 -0.20655151 85.5084375 -0.21779053 86.47265625 -0.22937012 C93.57871959 -0.16153938 98.86721577 1.53433674 104.25463867 6.25537109 C104.7934668 6.90634766 105.33229492 7.55732422 105.88745117 8.22802734 C106.44174805 8.87642578 106.99604492 9.52482422 107.56713867 10.19287109 C111.37154437 15.71440045 111.30922517 20.78634467 111.30297852 27.27807617 C111.30969574 28.2803273 111.31641296 29.28257843 111.32333374 30.31520081 C111.34231971 33.62603728 111.34623834 36.93667108 111.34838867 40.24755859 C111.35481645 42.55295393 111.36154479 44.85834844 111.36856079 47.16374207 C111.38053526 51.99646902 111.38424146 56.82912449 111.38305664 61.66186523 C111.38285351 67.84569595 111.41014943 74.0290668 111.44460106 80.21278858 C111.46687091 84.97497145 111.47089414 89.73704369 111.46983719 94.4992733 C111.47219325 96.77857739 111.481017 99.05788452 111.49650192 101.33713722 C111.51616176 104.53001448 111.51032311 107.72190071 111.49829102 110.91479492 C111.50953003 111.8506543 111.52076904 112.78651367 111.53234863 113.75073242 C111.4645179 120.85679577 109.76864178 126.14529194 105.04760742 131.53271484 C104.39663086 132.07154297 103.7456543 132.61037109 103.07495117 133.16552734 C102.42655273 133.71982422 101.7781543 134.27412109 101.11010742 134.84521484 C95.58857807 138.64962054 90.51663385 138.58730134 84.02490234 138.58105469 C83.02265121 138.58777191 82.02040009 138.59448914 80.98777771 138.60140991 C77.67694124 138.62039588 74.36630744 138.62431452 71.05541992 138.62646484 C68.75002459 138.63289262 66.44463007 138.63962097 64.13923645 138.64663696 C59.30650949 138.65861143 54.47385403 138.66231763 49.64111328 138.66113281 C43.45728257 138.66092968 37.27391172 138.6882256 31.09018993 138.72267723 C26.32800707 138.74494708 21.56593482 138.74897031 16.80370522 138.74791336 C14.52440113 138.75026942 12.245094 138.75909317 9.96584129 138.77457809 C6.77296403 138.79423793 3.58107781 138.78839929 0.38818359 138.77636719 C-0.54767578 138.7876062 -1.48353516 138.79884521 -2.44775391 138.8104248 C-9.55381725 138.74259407 -14.84231342 137.04671795 -20.22973633 132.32568359 C-21.03797852 131.34921875 -21.03797852 131.34921875 -21.86254883 130.35302734 C-22.4168457 129.70462891 -22.97114258 129.05623047 -23.54223633 128.38818359 C-27.34664203 122.86665424 -27.28432283 117.79471002 -27.27807617 111.30297852 C-27.28815201 109.79960182 -27.28815201 109.79960182 -27.2984314 108.26585388 C-27.31741736 104.95501741 -27.321336 101.64438361 -27.32348633 98.33349609 C-27.3299141 96.02810076 -27.33664245 93.72270624 -27.34365845 91.41731262 C-27.35563291 86.58458567 -27.35933912 81.7519302 -27.3581543 76.91918945 C-27.35795117 70.73535874 -27.38524709 64.55198789 -27.41969872 58.36826611 C-27.44196856 53.60608324 -27.44599179 48.84401099 -27.44493484 44.08178139 C-27.4472909 41.8024773 -27.45611465 39.52317017 -27.47159958 37.24391747 C-27.49125941 34.05104021 -27.48542077 30.85915398 -27.47338867 27.66625977 C-27.48462769 26.73040039 -27.4958667 25.79454102 -27.50744629 24.83032227 C-27.43961555 17.72425892 -25.74373943 12.43576275 -21.02270508 7.04833984 C-20.37172852 6.50951172 -19.72075195 5.97068359 -19.05004883 5.41552734 C-18.40165039 4.86123047 -17.75325195 4.30693359 -17.08520508 3.73583984 C-11.56367572 -0.06856586 -6.49173151 -0.00624665 0 0 Z M20.01245117 47.29052734 C20.01245117 61.81052734 20.01245117 76.33052734 20.01245117 91.29052734 C34.53245117 91.29052734 49.05245117 91.29052734 64.01245117 91.29052734 C64.01245117 76.77052734 64.01245117 62.25052734 64.01245117 47.29052734 C49.49245117 47.29052734 34.97245117 47.29052734 20.01245117 47.29052734 Z " fill="#FF6100" transform="translate(232.987548828125,411.70947265625)"/>
<path d="M0 0 C1.00298126 -0.0071553 2.00596252 -0.01431061 3.03933716 -0.02168274 C6.32341377 -0.03846132 9.60610452 -0.01923275 12.89013672 0.00219727 C15.18838615 0.00136771 17.48663552 -0.00109496 19.78488159 -0.00511169 C24.58789043 -0.00796212 29.39043098 0.00666061 34.19335938 0.03417969 C40.33788651 0.06829897 46.48157893 0.06222386 52.62614632 0.04351711 C57.36692214 0.03293151 62.1075049 0.04189863 66.84826279 0.05690193 C69.11358949 0.0620701 71.37893646 0.0616186 73.64426041 0.05535698 C76.81275832 0.04988454 79.9800744 0.0703447 83.1484375 0.09765625 C84.07644165 0.09113037 85.0044458 0.08460449 85.96057129 0.07788086 C93.02928459 0.18107465 98.29237723 1.91802196 103.68701172 6.56079102 C104.22583984 7.20274414 104.76466797 7.84469727 105.31982422 8.50610352 C105.87412109 9.14290039 106.42841797 9.77969727 106.99951172 10.43579102 C110.76696198 16.15824249 110.7418731 21.92704553 110.73535156 28.53271484 C110.74206879 29.51399857 110.74878601 30.49528229 110.75570679 31.50630188 C110.77466427 34.74196472 110.77860991 37.97741988 110.78076172 41.21313477 C110.78719134 43.46986475 110.79391982 45.7265939 110.80093384 47.98332214 C110.81290108 52.71172009 110.81661524 57.44004501 110.81542969 62.16845703 C110.81522657 68.21428142 110.84252472 74.25963541 110.87697411 80.3053484 C110.89925989 84.96634554 110.9032667 89.6272298 110.90221024 94.28827477 C110.90456381 96.51651314 110.9133735 98.74475475 110.92887497 100.97294044 C110.94856776 104.09606068 110.94268343 107.21817055 110.93066406 110.34130859 C110.94190308 111.25330017 110.95314209 112.16529175 110.96472168 113.10491943 C110.8947018 120.29927313 109.16593339 126.39065741 104.47998047 131.97094727 C103.50351562 132.76178711 103.50351562 132.76178711 102.50732422 133.56860352 C101.85892578 134.11387695 101.21052734 134.65915039 100.54248047 135.22094727 C94.99724146 138.94875226 89.97090753 138.93291075 83.48901367 138.9375 C82.48997513 138.94582352 81.49093658 138.95414703 80.46162415 138.96272278 C77.16041151 138.98680744 73.85939664 138.99559407 70.55810547 139.00219727 C68.25750165 139.01116628 65.95689841 139.02028818 63.65629578 139.02955627 C58.83196598 139.04604574 54.00770557 139.05374606 49.18334961 139.05664062 C43.01756081 139.06201762 36.85242925 139.09967049 30.68682575 139.14538479 C25.93313754 139.17520974 21.17960637 139.18236541 16.42583275 139.18336678 C14.15374944 139.18755991 11.88166526 139.19995752 9.60967445 139.22088432 C6.42183576 139.24790416 3.23550423 139.24294045 0.04760742 139.23046875 C-1.34539581 139.25272018 -1.34539581 139.25272018 -2.76654053 139.27542114 C-9.55777486 139.20020822 -14.91546894 137.47891128 -20.55517578 133.63110352 C-24.94285602 128.96207511 -27.67039692 124.82452288 -27.69561768 118.2865448 C-27.70418289 116.95551476 -27.70418289 116.95551476 -27.71292114 115.59759521 C-27.714039 114.62662903 -27.71515686 113.65566284 -27.71630859 112.65527344 C-27.7212735 111.63059464 -27.7262384 110.60591583 -27.73135376 109.55018616 C-27.74598125 106.15397474 -27.75277842 102.75781003 -27.75830078 99.36157227 C-27.76405179 97.00368752 -27.76980952 94.6458028 -27.77557373 92.28791809 C-27.78608542 87.34070619 -27.79192698 82.39351056 -27.79541016 77.44628906 C-27.80089494 71.10760089 -27.82492215 64.76912751 -27.85338211 58.43050671 C-27.87200739 53.5586128 -27.87721404 48.68677064 -27.87874603 43.81484413 C-27.88177337 41.47806944 -27.88980459 39.14129568 -27.90293121 36.80455589 C-27.91998885 33.53457685 -27.9181119 30.2651227 -27.91162109 26.99511719 C-27.92083588 26.03022369 -27.93005066 25.0653302 -27.93954468 24.07119751 C-27.90677104 18.79947176 -27.43365969 15.22169484 -24.55517578 10.63110352 C-24.03955078 9.78547852 -23.52392578 8.93985352 -22.99267578 8.06860352 C-16.49137332 1.56730106 -8.90497254 -0.112688 0 0 Z M18.44482422 47.63110352 C18.44482422 62.15110352 18.44482422 76.67110352 18.44482422 91.63110352 C33.29482422 91.63110352 48.14482422 91.63110352 63.44482422 91.63110352 C63.44482422 77.11110352 63.44482422 62.59110352 63.44482422 47.63110352 C48.59482422 47.63110352 33.74482422 47.63110352 18.44482422 47.63110352 Z " fill="#FF6100" transform="translate(27.55517578125,411.368896484375)"/>
<path d="M0 0 C0.99903854 -0.00832352 1.99807709 -0.01664703 3.02738953 -0.02522278 C6.32860216 -0.04930744 9.62961703 -0.05809407 12.9309082 -0.06469727 C15.23151203 -0.07366628 17.53211526 -0.08278818 19.8327179 -0.09205627 C24.65704769 -0.10854574 29.4813081 -0.11624606 34.30566406 -0.11914062 C40.47145286 -0.12451762 46.63658442 -0.16217049 52.80218792 -0.20788479 C57.55587613 -0.23770974 62.3094073 -0.24486541 67.06318092 -0.24586678 C69.33526424 -0.25005991 71.60734841 -0.26245752 73.87933922 -0.28338432 C77.06717792 -0.31040416 80.25350944 -0.30544045 83.44140625 -0.29296875 C84.37007507 -0.30780304 85.2987439 -0.32263733 86.2555542 -0.33792114 C93.04678853 -0.26270822 98.40448261 1.45858872 104.04418945 5.30639648 C108.43186969 9.97542489 111.1594106 14.11297712 111.18463135 20.6509552 C111.19034149 21.53830856 111.19605164 22.42566193 111.20193481 23.33990479 C111.2036116 24.79635406 111.2036116 24.79635406 111.20532227 26.28222656 C111.21028717 27.30690536 111.21525208 28.33158417 111.22036743 29.38731384 C111.23499492 32.78352526 111.24179209 36.17968997 111.24731445 39.57592773 C111.25306546 41.93381248 111.2588232 44.2916972 111.2645874 46.64958191 C111.27509909 51.59679381 111.28094065 56.54398944 111.28442383 61.49121094 C111.28990862 67.82989911 111.31393582 74.16837249 111.34239578 80.50699329 C111.36102106 85.3788872 111.36622771 90.25072936 111.3677597 95.12265587 C111.37078704 97.45943056 111.37881826 99.79620432 111.39194489 102.13294411 C111.40900252 105.40292315 111.40712557 108.6723773 111.40063477 111.94238281 C111.40984955 112.90727631 111.41906433 113.8721698 111.42855835 114.86630249 C111.39578471 120.13802824 110.92267336 123.71580516 108.04418945 128.30639648 C107.52856445 129.15202148 107.01293945 129.99764648 106.48168945 130.86889648 C100.88272782 136.46785812 94.10562538 138.86017859 86.28887939 138.97293091 C85.36492371 138.96123871 84.44096802 138.94954651 83.48901367 138.9375 C81.98454178 138.94823296 81.98454178 138.94823296 80.44967651 138.95918274 C77.1655999 138.97596132 73.88290915 138.95673275 70.59887695 138.93530273 C68.30062752 138.93613229 66.00237815 138.93859496 63.70413208 138.94261169 C58.90112324 138.94546212 54.09858269 138.93083939 49.2956543 138.90332031 C43.15112716 138.86920103 37.00743474 138.87527614 30.86286736 138.89398289 C26.12209154 138.90456849 21.38150877 138.89560137 16.64075089 138.88059807 C14.37542418 138.8754299 12.11007721 138.8758814 9.84475327 138.88214302 C6.67625535 138.88761546 3.50893927 138.8671553 0.34057617 138.83984375 C-0.58742798 138.84636963 -1.51543213 138.85289551 -2.47155762 138.85961914 C-9.54027092 138.75642535 -14.80336355 137.01947804 -20.19799805 132.37670898 C-20.73682617 131.73475586 -21.2756543 131.09280273 -21.83081055 130.43139648 C-22.38510742 129.79459961 -22.9394043 129.15780273 -23.51049805 128.50170898 C-27.27794831 122.77925751 -27.25285943 117.01045447 -27.24633789 110.40478516 C-27.25305511 109.42350143 -27.25977234 108.44221771 -27.26669312 107.43119812 C-27.2856506 104.19553528 -27.28959624 100.96008012 -27.29174805 97.72436523 C-27.29817766 95.46763525 -27.30490615 93.2109061 -27.31192017 90.95417786 C-27.32388741 86.22577991 -27.32760156 81.49745499 -27.32641602 76.76904297 C-27.32621289 70.72321858 -27.35351105 64.67786459 -27.38796043 58.6321516 C-27.41024622 53.97115446 -27.41425303 49.3102702 -27.41319656 44.64922523 C-27.41555013 42.42098686 -27.42435983 40.19274525 -27.4398613 37.96455956 C-27.45955409 34.84143932 -27.45366976 31.71932945 -27.44165039 28.59619141 C-27.4528894 27.68419983 -27.46412842 26.77220825 -27.47570801 25.83258057 C-27.40568813 18.63822687 -25.67691972 12.54684259 -20.9909668 6.96655273 C-20.01450195 6.17571289 -20.01450195 6.17571289 -19.01831055 5.36889648 C-18.36991211 4.82362305 -17.72151367 4.27834961 -17.0534668 3.71655273 C-11.50822779 -0.01125226 -6.48189386 0.00458925 0 0 Z M20.04418945 47.30639648 C20.04418945 61.82639648 20.04418945 76.34639648 20.04418945 91.30639648 C34.89418945 91.30639648 49.74418945 91.30639648 65.04418945 91.30639648 C65.04418945 76.78639648 65.04418945 62.26639648 65.04418945 47.30639648 C50.19418945 47.30639648 35.34418945 47.30639648 20.04418945 47.30639648 Z " fill="#FF6100" transform="translate(438.955810546875,411.693603515625)"/>
<path d="M0 0 C0.99903854 -0.00832352 1.99807709 -0.01664703 3.02738953 -0.02522278 C6.32860216 -0.04930744 9.62961703 -0.05809407 12.9309082 -0.06469727 C15.23151203 -0.07366628 17.53211526 -0.08278818 19.8327179 -0.09205627 C24.65704769 -0.10854574 29.4813081 -0.11624606 34.30566406 -0.11914062 C40.47145286 -0.12451762 46.63658442 -0.16217049 52.80218792 -0.20788479 C57.55587613 -0.23770974 62.3094073 -0.24486541 67.06318092 -0.24586678 C69.33526424 -0.25005991 71.60734841 -0.26245752 73.87933922 -0.28338432 C77.06717792 -0.31040416 80.25350944 -0.30544045 83.44140625 -0.29296875 C84.37007507 -0.30780304 85.2987439 -0.32263733 86.2555542 -0.33792114 C93.10809435 -0.26202926 98.27242026 1.60267829 104.04418945 5.30639648 C106.2980957 7.69311523 106.2980957 7.69311523 107.60668945 9.99389648 C108.06172852 10.76088867 108.51676758 11.52788086 108.9855957 12.31811523 C110.59409805 15.33925064 111.17414184 17.08010203 111.20481873 20.50378418 C111.21988716 21.82408127 111.21988716 21.82408127 111.23526001 23.17105103 C111.241091 24.13932831 111.246922 25.10760559 111.25292969 26.10522461 C111.26271347 27.12333221 111.27249725 28.14143982 111.28257751 29.19039917 C111.31258313 32.57280158 111.33393621 35.95516413 111.3527832 39.33764648 C111.35935503 40.49278244 111.36592686 41.6479184 111.37269783 42.83805847 C111.40532065 48.95737483 111.42975939 55.07667361 111.44921875 61.19604492 C111.46700474 66.25554889 111.50177844 71.31449269 111.55175781 76.3737793 C111.61205143 82.48400054 111.64270834 88.59370381 111.65239143 94.70420837 C111.66093519 97.02935303 111.67972636 99.35448426 111.70913506 101.67945862 C111.74819522 104.94438375 111.74906411 108.20730739 111.74121094 111.47241211 C111.77121185 112.90053726 111.77121185 112.90053726 111.80181885 114.35751343 C111.72474905 121.53529367 109.55841966 126.70477211 105.04418945 132.30639648 C100.37026315 136.06255491 95.86706242 138.41910843 89.78901672 138.4535675 C88.92138199 138.46072281 88.05374725 138.46787811 87.15982056 138.47525024 C86.21069794 138.47793915 85.26157532 138.48062805 84.28369141 138.48339844 C82.78075279 138.49325523 82.78075279 138.49325523 81.24745178 138.50331116 C77.92579068 138.52304933 74.60417482 138.53470863 71.2824707 138.54467773 C69.58049562 138.55079103 69.58049562 138.55079103 67.84413719 138.55702782 C61.8373368 138.57789185 55.83055927 138.59219153 49.82373047 138.6015625 C43.62417567 138.612621 37.42498037 138.6470139 31.22555256 138.6867342 C26.45480184 138.71290164 21.68413671 138.72125453 16.91332054 138.72484398 C14.62842573 138.72971042 12.34353475 138.74132598 10.0587101 138.75988197 C6.85607199 138.78427283 3.65436304 138.78330798 0.45166016 138.77636719 C-0.95684204 138.79558228 -0.95684204 138.79558228 -2.39379883 138.81518555 C-9.51484873 138.75910596 -14.76414594 137.05322978 -20.19799805 132.37670898 C-20.73682617 131.73475586 -21.2756543 131.09280273 -21.83081055 130.43139648 C-22.38510742 129.79459961 -22.9394043 129.15780273 -23.51049805 128.50170898 C-27.27794831 122.77925751 -27.25285943 117.01045447 -27.24633789 110.40478516 C-27.25305511 109.42350143 -27.25977234 108.44221771 -27.26669312 107.43119812 C-27.2856506 104.19553528 -27.28959624 100.96008012 -27.29174805 97.72436523 C-27.29817766 95.46763525 -27.30490615 93.2109061 -27.31192017 90.95417786 C-27.32388741 86.22577991 -27.32760156 81.49745499 -27.32641602 76.76904297 C-27.32621289 70.72321858 -27.35351105 64.67786459 -27.38796043 58.6321516 C-27.41024622 53.97115446 -27.41425303 49.3102702 -27.41319656 44.64922523 C-27.41555013 42.42098686 -27.42435983 40.19274525 -27.4398613 37.96455956 C-27.45955409 34.84143932 -27.45366976 31.71932945 -27.44165039 28.59619141 C-27.4528894 27.68419983 -27.46412842 26.77220825 -27.47570801 25.83258057 C-27.40568813 18.63822687 -25.67691972 12.54684259 -20.9909668 6.96655273 C-20.01450195 6.17571289 -20.01450195 6.17571289 -19.01831055 5.36889648 C-18.36991211 4.82362305 -17.72151367 4.27834961 -17.0534668 3.71655273 C-11.50822779 -0.01125226 -6.48189386 0.00458925 0 0 Z M20.04418945 47.30639648 C20.04418945 61.82639648 20.04418945 76.34639648 20.04418945 91.30639648 C34.89418945 91.30639648 49.74418945 91.30639648 65.04418945 91.30639648 C65.04418945 76.78639648 65.04418945 62.26639648 65.04418945 47.30639648 C50.19418945 47.30639648 35.34418945 47.30639648 20.04418945 47.30639648 Z " fill="#FF6100" transform="translate(26.955810546875,-0.306396484375)"/>
<path d="M0 0 C0.86763474 -0.0071553 1.73526947 -0.01431061 2.62919617 -0.02168274 C3.57831879 -0.02437164 4.52744141 -0.02706055 5.50532532 -0.02983093 C6.50728439 -0.03640213 7.50924347 -0.04297333 8.54156494 -0.04974365 C11.86322605 -0.06948182 15.1848419 -0.08114112 18.50654602 -0.09111023 C20.20852111 -0.09722352 20.20852111 -0.09722352 21.94487953 -0.10346031 C27.95167992 -0.12432434 33.95845746 -0.13862403 39.96528625 -0.147995 C46.16484106 -0.15905349 52.36403635 -0.1934464 58.56346416 -0.23316669 C63.33421488 -0.25933413 68.10488001 -0.26768703 72.87569618 -0.27127647 C75.160591 -0.27614292 77.44548198 -0.28775848 79.73030663 -0.30631447 C82.93294473 -0.33070532 86.13465369 -0.32974047 89.33735657 -0.32279968 C90.27635803 -0.33560974 91.2153595 -0.3484198 92.18281555 -0.36161804 C99.30386546 -0.30553846 104.55316267 1.40033772 109.98701477 6.07685852 C110.5258429 6.71881165 111.06467102 7.36076477 111.61982727 8.02217102 C112.17412415 8.6589679 112.72842102 9.29576477 113.29951477 9.95185852 C117.06696503 15.67430999 117.04187616 21.44311303 117.03535461 28.04878235 C117.04207184 29.03006607 117.04878906 30.01134979 117.05570984 31.02236938 C117.07466732 34.25803223 117.07861296 37.49348738 117.08076477 40.72920227 C117.08719439 42.98593225 117.09392287 45.24266141 117.10093689 47.49938965 C117.11290413 52.2277876 117.11661829 56.95611251 117.11543274 61.68452454 C117.11522962 67.73034893 117.14252778 73.77570292 117.17697716 79.8214159 C117.19926294 84.48241305 117.20326975 89.14329731 117.20221329 93.80434227 C117.20456686 96.03258065 117.21337655 98.26082225 117.22887802 100.48900795 C117.24857082 103.61212818 117.24268648 106.73423806 117.23066711 109.8573761 C117.24190613 110.76936768 117.25314514 111.68135925 117.26472473 112.62098694 C117.19470485 119.81534064 115.46593644 125.90672491 110.77998352 131.48701477 C109.80351868 132.27785461 109.80351868 132.27785461 108.80732727 133.08467102 C108.15892883 133.62994446 107.5105304 134.1752179 106.84248352 134.73701477 C101.29724451 138.46481977 96.27091058 138.44897826 89.78901672 138.4535675 C88.78997818 138.46189102 87.79093964 138.47021454 86.7616272 138.47879028 C83.46041456 138.50287494 80.15939969 138.51166157 76.85810852 138.51826477 C74.5575047 138.52723378 72.25690147 138.53635568 69.95629883 138.54562378 C65.13196903 138.56211325 60.30770862 138.56981356 55.48335266 138.57270813 C49.31756386 138.57808512 43.1524323 138.615738 36.9868288 138.66145229 C32.2331406 138.69127725 27.47960942 138.69843292 22.7258358 138.69943428 C20.45375249 138.70362741 18.18166831 138.71602503 15.90967751 138.73695183 C12.72183881 138.76397167 9.53550728 138.75900795 6.34761047 138.74653625 C4.95460724 138.76878769 4.95460724 138.76878769 3.53346252 138.79148865 C-3.31907763 138.71559676 -8.48340353 136.85088922 -14.25517273 133.14717102 C-16.50907898 130.76045227 -16.50907898 130.76045227 -17.81767273 128.45967102 C-18.27271179 127.69267883 -18.72775085 126.92568665 -19.19657898 126.13545227 C-20.80508133 123.11431687 -21.38512512 121.37346547 -21.415802 117.94978333 C-21.42584763 117.06958527 -21.43589325 116.18938721 -21.44624329 115.28251648 C-21.45207428 114.3142392 -21.45790527 113.34596191 -21.46391296 112.3483429 C-21.47369675 111.33023529 -21.48348053 110.31212769 -21.49356079 109.26316833 C-21.52356641 105.88076592 -21.54491949 102.49840338 -21.56376648 99.11592102 C-21.57033831 97.96078506 -21.57691013 96.80564911 -21.58368111 95.61550903 C-21.61630393 89.49619268 -21.64074267 83.3768939 -21.66020203 77.25752258 C-21.67798801 72.19801862 -21.71276172 67.13907482 -21.76274109 62.07978821 C-21.82303471 55.96956697 -21.85369162 49.8598637 -21.86337471 43.74935913 C-21.87191846 41.42421448 -21.89070963 39.09908325 -21.92011833 36.77410889 C-21.95917849 33.50918376 -21.96004739 30.24626012 -21.95219421 26.9811554 C-21.97219482 26.02907196 -21.99219543 25.07698853 -22.01280212 24.09605408 C-21.93573233 16.91827383 -19.76940294 11.7487954 -15.25517273 6.14717102 C-10.58124642 2.3910126 -6.0780457 0.03445907 0 0 Z M24.74482727 47.14717102 C24.74482727 61.66717102 24.74482727 76.18717102 24.74482727 91.14717102 C39.59482727 91.14717102 54.44482727 91.14717102 69.74482727 91.14717102 C69.74482727 76.62717102 69.74482727 62.10717102 69.74482727 47.14717102 C54.89482727 47.14717102 40.04482727 47.14717102 24.74482727 47.14717102 Z " fill="#FF6200" transform="translate(433.2551727294922,-0.1471710205078125)"/>
<path d="M0 0 C1.46951614 -0.01248528 1.46951614 -0.01248528 2.96871948 -0.02522278 C6.19956467 -0.04926919 9.43020769 -0.05808883 12.66113281 -0.06469727 C14.9154669 -0.0736683 17.1698004 -0.08279023 19.4241333 -0.09205627 C24.14833013 -0.10853473 28.87245618 -0.11624421 33.59667969 -0.11914062 C39.63353006 -0.12452034 45.66971003 -0.16218918 51.70637131 -0.20788479 C56.36312251 -0.23771103 61.01971343 -0.24486542 65.67655182 -0.24586678 C67.90118731 -0.25005868 70.12582373 -0.2624513 72.35036469 -0.28338432 C75.47104879 -0.31041068 78.59019392 -0.30543898 81.7109375 -0.29296875 C82.6193338 -0.30780304 83.5277301 -0.32263733 84.46365356 -0.33792114 C91.73850126 -0.25564684 98.16434047 1.88174685 103.7374382 6.71372318 C109.65567721 13.32249727 110.55855056 19.8735736 110.50244141 28.33740234 C110.51032684 29.81195641 110.51032684 29.81195641 110.51837158 31.31629944 C110.53152706 34.55144348 110.52284838 37.78609157 110.51269531 41.02124023 C110.51471748 43.27893671 110.51763011 45.53663254 110.52139282 47.79432678 C110.5258103 52.52098828 110.51940414 57.24747943 110.50537109 61.97412109 C110.48828957 68.02108053 110.49811778 74.06764018 110.51608849 80.11458492 C110.52695017 84.77554819 110.52346883 89.43641733 110.51570511 94.0973835 C110.51370919 96.3264324 110.51614091 98.55548994 110.52314377 100.78452873 C110.53079625 103.90524673 110.51910005 107.02532547 110.50244141 110.14599609 C110.5085141 111.0600119 110.51458679 111.97402771 110.52084351 112.91574097 C110.45620546 119.48023473 109.47766571 125.07316292 105.50097656 130.51342773 C104.94023438 131.04323242 104.37949219 131.57303711 103.80175781 132.11889648 C103.24875 132.6615918 102.69574219 133.20428711 102.12597656 133.76342773 C96.13493113 138.35850142 91.11233787 138.74470529 83.82958984 138.71044922 C82.2967334 138.72074409 82.2967334 138.72074409 80.73291016 138.73124695 C77.36248794 138.74951379 73.99253131 138.74567712 70.62207031 138.73999023 C68.27326303 138.7445524 65.92445708 138.74985808 63.57565308 138.75587463 C58.65470963 138.76480578 53.73392846 138.76238282 48.81298828 138.75244141 C42.51594294 138.74095787 36.21945887 138.76115439 29.92248726 138.79035854 C25.07193459 138.80873188 20.22151609 138.80842566 15.37093735 138.80272102 C13.04977507 138.80256792 10.72860363 138.80860338 8.40747452 138.8210125 C5.15719985 138.83593972 1.90795787 138.82523133 -1.34228516 138.80810547 C-2.77176987 138.82260742 -2.77176987 138.82260742 -4.23013306 138.83740234 C-11.22982991 138.76042412 -16.55362113 137.18179824 -21.90917969 132.56030273 C-22.35519531 132.00213867 -22.80121094 131.44397461 -23.26074219 130.86889648 C-23.72222656 130.31331055 -24.18371094 129.75772461 -24.65917969 129.18530273 C-28.269641 123.65462792 -28.18770348 118.54530941 -28.19213867 112.13525391 C-28.20046219 111.11349564 -28.20878571 110.09173737 -28.21736145 109.03901672 C-28.24144483 105.66326072 -28.25023168 102.28769802 -28.25683594 98.91186523 C-28.26580358 96.56162966 -28.27492545 94.21139468 -28.28419495 91.86116028 C-28.30068303 86.93428155 -28.30838474 82.00747076 -28.3112793 77.08056641 C-28.31666253 70.77558306 -28.35434186 64.47124054 -28.40002346 58.1664381 C-28.42980459 53.31160668 -28.4370031 48.45692937 -28.43800545 43.60201454 C-28.44220567 41.27803933 -28.45463189 38.95406356 -28.47552299 36.63017845 C-28.50245752 33.37488406 -28.49760473 30.12107257 -28.48510742 26.86572266 C-28.49994171 25.9111618 -28.514776 24.95660095 -28.53005981 23.97311401 C-28.44805636 16.45049151 -26.0372799 11.83230693 -21.07714844 6.28295898 C-20.27083984 5.61393555 -20.27083984 5.61393555 -19.44824219 4.93139648 C-18.91328125 4.46991211 -18.37832031 4.00842773 -17.82714844 3.53295898 C-12.18431031 -0.03213392 -6.44181337 0.00467183 0 0 Z M18.11425781 47.30639648 C18.11425781 62.15639648 18.11425781 77.00639648 18.11425781 92.30639648 C32.96425781 92.30639648 47.81425781 92.30639648 63.11425781 92.30639648 C63.11425781 77.45639648 63.11425781 62.60639648 63.11425781 47.30639648 C48.26425781 47.30639648 33.41425781 47.30639648 18.11425781 47.30639648 Z " fill="#FF6100" transform="translate(439.8857421875,205.693603515625)"/>
<path d="M0 0 C1.02175827 -0.00832352 2.04351654 -0.01664703 3.09623718 -0.02522278 C6.47199319 -0.04930616 9.84755588 -0.05809301 13.22338867 -0.06469727 C15.57362424 -0.07366491 17.92385923 -0.08278678 20.27409363 -0.09205627 C25.20097236 -0.10854436 30.12778315 -0.11624607 35.0546875 -0.11914062 C41.35967085 -0.12452386 47.66401337 -0.16220318 53.9688158 -0.20788479 C58.82364723 -0.23766592 63.67832454 -0.24486443 68.53323936 -0.24586678 C70.85721458 -0.250067 73.18119034 -0.26249322 75.50507545 -0.28338432 C78.76036985 -0.31031885 82.01418134 -0.30546606 85.26953125 -0.29296875 C86.2240921 -0.30780304 87.17865295 -0.32263733 88.16213989 -0.33792114 C95.6847624 -0.25591768 100.30294698 2.15485877 105.85229492 7.11499023 C106.52131836 7.92129883 106.52131836 7.92129883 107.20385742 8.74389648 C107.89608398 9.54633789 107.89608398 9.54633789 108.60229492 10.36499023 C112.16738782 16.00782836 112.13058208 21.7503253 112.13525391 28.19213867 C112.14357742 29.1718161 112.15190094 30.15149353 112.16047668 31.16085815 C112.18452309 34.39170334 112.19334273 37.62234636 112.19995117 40.85327148 C112.2089222 43.10760558 112.21804414 45.36193907 112.22731018 47.61627197 C112.24378863 52.3404688 112.25149811 57.06459485 112.25439453 61.78881836 C112.25977424 67.82566873 112.29744309 73.8618487 112.34313869 79.89850998 C112.37296494 84.55526118 112.38011932 89.2118521 112.38112068 93.86869049 C112.38531258 96.09332598 112.39770521 98.31796241 112.41863823 100.54250336 C112.44566459 103.66318747 112.44069289 106.7823326 112.42822266 109.90307617 C112.45047409 111.26567062 112.45047409 111.26567062 112.47317505 112.65579224 C112.39090074 119.93063993 110.25350706 126.35647914 105.42153072 131.92957687 C98.81275664 137.84781588 92.26168031 138.75068923 83.79785156 138.69458008 C82.81481552 138.69983704 81.83177948 138.70509399 80.81895447 138.71051025 C77.58381043 138.72366573 74.34916234 138.71498705 71.11401367 138.70483398 C68.8563172 138.70685615 66.59862137 138.70976879 64.34092712 138.71353149 C59.61426562 138.71794897 54.88777448 138.71154281 50.16113281 138.69750977 C44.11417337 138.68042825 38.06761373 138.69025645 32.02066898 138.70822716 C27.35970571 138.71908884 22.69883657 138.71560751 18.03787041 138.70784378 C15.80882151 138.70584787 13.57976396 138.70827959 11.35072517 138.71528244 C8.23000718 138.72293492 5.10992843 138.71123872 1.98925781 138.69458008 C1.075242 138.70065277 0.1612262 138.70672546 -0.78048706 138.71298218 C-7.34498082 138.64834413 -12.93790901 137.66980438 -18.37817383 133.69311523 C-18.90797852 133.13237305 -19.4377832 132.57163086 -19.98364258 131.99389648 C-20.52633789 131.44088867 -21.0690332 130.88788086 -21.62817383 130.31811523 C-26.22324751 124.3270698 -26.60945138 119.30447654 -26.57519531 112.02172852 C-26.58205856 110.99982422 -26.58892181 109.97791992 -26.59599304 108.92504883 C-26.61425989 105.55462661 -26.61042321 102.18466998 -26.60473633 98.81420898 C-26.60929849 96.4654017 -26.61460417 94.11659576 -26.62062073 91.76779175 C-26.62955188 86.8468483 -26.62712891 81.92606713 -26.6171875 77.00512695 C-26.60570396 70.70808161 -26.62590049 64.41159754 -26.65510464 58.11462593 C-26.67347797 53.26407326 -26.67317176 48.41365477 -26.66746712 43.56307602 C-26.66731401 41.24191374 -26.67334948 38.9207423 -26.68575859 36.59961319 C-26.70068581 33.34933852 -26.68997743 30.10009654 -26.67285156 26.84985352 C-26.68251953 25.89686371 -26.6921875 24.9438739 -26.70214844 23.96200562 C-26.62517022 16.96230876 -25.04654434 11.63851754 -20.42504883 6.28295898 C-19.86688477 5.83694336 -19.3087207 5.39092773 -18.73364258 4.93139648 C-18.17805664 4.46991211 -17.6224707 4.00842773 -17.05004883 3.53295898 C-11.51937401 -0.07750233 -6.4100555 0.00443519 0 0 Z M19.82885742 46.30639648 C19.82885742 61.15639648 19.82885742 76.00639648 19.82885742 91.30639648 C34.67885742 91.30639648 49.52885742 91.30639648 64.82885742 91.30639648 C64.82885742 76.45639648 64.82885742 61.60639648 64.82885742 46.30639648 C49.97885742 46.30639648 35.12885742 46.30639648 19.82885742 46.30639648 Z " fill="#FF6100" transform="translate(26.171142578125,205.693603515625)"/>
</svg>
